<?xml version="1.0" encoding="UTF-8"?>
<svg version="1.1" viewBox="0 0 1600 1600" width="1280" height="1280" xmlns="http://www.w3.org/2000/svg">
<path transform="translate(0)" d="m0 0h1600v1600h-1600z" fill="#fff"/>
<path transform="translate(571,684)" d="m0 0h499v64h-62v121h62v187h-28v-123h-34v123h-65v-308h-245v308h-65v-308h-62z" fill="#8B4513"/>
<path transform="translate(427,1182)" d="m0 0h28l11 3 8 6 5 8 1 4v15l-3 8-6 7-8 4-8 2h-28v-24h-7v-10h7z" fill="#8B4513"/>
<path transform="translate(593,1180)" d="m0 0h15l13 4v12l-9-3-5-1h-10l-8 4-4 8v12l4 8 8 4h12v-11h-9v-10h23v28l-11 4-5 1h-15l-9-3-10-9-4-10v-16l4-10 7-7 9-4z" fill="#8B4513"/>
<path transform="translate(649,1195)" d="m0 0h13l8 3 7 8 2 6v11l-3 8-8 7-6 2h-13l-9-4-6-7-2-6v-11l3-8 8-7z" fill="#8B4513"/>
<path transform="translate(505,1195)" d="m0 0h12l10 4 6 8 1 3v15l-4 8-5 4-8 3h-12l-10-4-6-8-1-3v-15l4-8 5-4z" fill="#8B4513"/>
<path transform="translate(1172,1179)" d="m0 0h14l1 21 6-4 3-1h8l6 3 4 6 1 4v31h-14l-1-30-3-3-7 1-3 5-1 27h-14z" fill="#8B4513"/>
<path transform="translate(932,1179)" d="m0 0h14l1 21 6-4 3-1h8l6 3 4 6 1 4v31h-14l-1-30-3-3-7 1-3 5-1 27h-14z" fill="#8B4513"/>
<path transform="translate(769,1179)" d="m0 0h14l1 21 6-4 3-1h8l7 4 3 6 1 4v30h-14l-1-29-1-3-7-1-5 5-1 28h-14z" fill="#8B4513"/>
<path transform="translate(1073,1195)" d="m0 0h17l8 3 4 5 2 5v31h-14l-1-4-5 4-3 1h-10l-7-4-3-6v-9l4-6 5-3 4-1h16l-2-5-3-1h-11l-9 2v-10z" fill="#8B4513"/>
<path transform="translate(833,1195)" d="m0 0h17l8 3 4 5 2 5v31h-14l-1-4-5 4-3 1h-10l-6-4-4-6v-8l3-6 6-4 5-1h15l-2-5-3-1h-11l-9 2v-10z" fill="#8B4513"/>
<path transform="translate(901,1195)" d="m0 0h7l7 3 4 7 1 6v28h-14l-1-28-3-5-7 1-3 4-1 6-1 22h-13v-43h13v5l8-5z" fill="#8B4513"/>
<path transform="translate(1141,1195)" d="m0 0h7l6 3 4 5 1 2v34h-13l-1-27-2-5-1-1-7 1-3 4-1 4-1 24h-13v-43h13v5l7-5z" fill="#8B4513"/>
<path transform="translate(710,1182)" d="m0 0h52v11h-19v46h-14v-46h-19z" fill="#8B4513"/>
<path transform="translate(1016,1181)" d="m0 0h14v47h26v11h-41v-57z" fill="#8B4513"/>
<path transform="translate(442,1193)" d="m0 0h10l7 3 5 6 1 3v11l-3 6-4 4-6 2h-10v-13h8v-10h-8z" fill="#fff"/>
<path transform="translate(652,1205)" d="m0 0h7l5 5 1 10-2 7-4 3h-7l-5-5-1-10 2-7z" fill="#fff"/>
<path transform="translate(508,1205)" d="m0 0h6l5 4 1 3v11l-3 5-3 2h-6l-5-4-1-3v-11l3-5z" fill="#fff"/>
<path transform="translate(647,1169)" d="m0 0h6l6 4h3l1-4h6l-1 7-4 4h-6l-6-4h-3l-1 4h-6l1-7z" fill="#8B4513"/>
<path transform="translate(649,1181)" d="m0 0h13l7 8v2h-6l-8-5-7 5h-7l6-8z" fill="#8B4513"/>
<path transform="translate(504,1180)" d="m0 0h13l8 9v1h-7l-6-5-4 2-4 3h-7l4-6z" fill="#8B4513"/>
<path transform="translate(1079,1219)" d="m0 0h11v6l-4 5-7 1-4-3v-6z" fill="#fff"/>
<path transform="translate(840,1219)" d="m0 0h10v6l-4 5-7 1-4-3 1-7z" fill="#fff"/>
<path transform="translate(1069,1176)" d="m0 0h10l9 11 1 4h-7l-8-8z" fill="#8B4513"/>
<path transform="translate(829,1176)" d="m0 0h11l9 13v2h-6l-5-4-7-8z" fill="#8B4513"/>
<path transform="translate(514,1170)" d="m0 0h11l6 8v2h-7l-10-9z" fill="#8B4513"/>
</svg>
